<!-- <?xml version="1.0" encoding="UTF-8" standalone="no"?><svg xmlns:svg="http://www.w3.org/2000/svg" xmlns="http://www.w3.org/2000/svg" xmlns:xlink="http://www.w3.org/1999/xlink" version="1.0" width="160px" height="20px" viewBox="0 0 128 16" xml:space="preserve"><path fill="#ffffff" d="M6.4,4.8A3.2,3.2,0,1,1,3.2,8,3.2,3.2,0,0,1,6.4,4.8Zm12.8,0A3.2,3.2,0,1,1,16,8,3.2,3.2,0,0,1,19.2,4.8ZM32,4.8A3.2,3.2,0,1,1,28.8,8,3.2,3.2,0,0,1,32,4.8Zm12.8,0A3.2,3.2,0,1,1,41.6,8,3.2,3.2,0,0,1,44.8,4.8Zm12.8,0A3.2,3.2,0,1,1,54.4,8,3.2,3.2,0,0,1,57.6,4.8Zm12.8,0A3.2,3.2,0,1,1,67.2,8,3.2,3.2,0,0,1,70.4,4.8Zm12.8,0A3.2,3.2,0,1,1,80,8,3.2,3.2,0,0,1,83.2,4.8ZM96,4.8A3.2,3.2,0,1,1,92.8,8,3.2,3.2,0,0,1,96,4.8Zm12.8,0A3.2,3.2,0,1,1,105.6,8,3.2,3.2,0,0,1,108.8,4.8Zm12.8,0A3.2,3.2,0,1,1,118.4,8,3.2,3.2,0,0,1,121.6,4.8Z"/><g><path fill="#ffffff" d="M-42.7,3.84A4.16,4.16,0,0,1-38.54,8a4.16,4.16,0,0,1-4.16,4.16A4.16,4.16,0,0,1-46.86,8,4.16,4.16,0,0,1-42.7,3.84Zm12.8-.64A4.8,4.8,0,0,1-25.1,8a4.8,4.8,0,0,1-4.8,4.8A4.8,4.8,0,0,1-34.7,8,4.8,4.8,0,0,1-29.9,3.2Zm12.8-.64A5.44,5.44,0,0,1-11.66,8a5.44,5.44,0,0,1-5.44,5.44A5.44,5.44,0,0,1-22.54,8,5.44,5.44,0,0,1-17.1,2.56Z"/><animateTransform attributeName="transform" type="translate" values="23 0;36 0;49 0;62 0;74.5 0;87.5 0;100 0;113 0;125.5 0;138.5 0;151.5 0;164.5 0;178 0" calcMode="discrete" dur="780ms" repeatCount="indefinite"/></g></svg>
<svg xmlns="http://www.w3.org/2000/svg" viewBox="0 0 128 128">
  <circle cx="64" cy="64" r="54" fill="#1DB954"/>
  <text x="50%" y="50%" dominant-baseline="middle" text-anchor="middle" font-size="48" font-family="sans-serif" fill="#FFFFFF">...</text>
</svg> -->


<!-- <?xml version="1.0" encoding="UTF-8" standalone="no"?><svg xmlns:svg="http://www.w3.org/2000/svg" xmlns="http://www.w3.org/2000/svg" xmlns:xlink="http://www.w3.org/1999/xlink" version="1.0" width="64px" height="64px" viewBox="0 0 128 128" xml:space="preserve"><g><path d="M78.75 16.18V1.56a64.1 64.1 0 0 1 47.7 47.7H111.8a49.98 49.98 0 0 0-33.07-33.08zM16.43 49.25H1.8a64.1 64.1 0 0 1 47.7-47.7V16.2a49.98 49.98 0 0 0-33.07 33.07zm33.07 62.32v14.62A64.1 64.1 0 0 1 1.8 78.5h14.63a49.98 49.98 0 0 0 33.07 33.07zm62.32-33.07h14.62a64.1 64.1 0 0 1-47.7 47.7v-14.63a49.98 49.98 0 0 0 33.08-33.07z" fill="#000000"/><animateTransform attributeName="transform" type="rotate" from="0 64 64" to="-90 64 64" dur="1800ms" repeatCount="indefinite"></animateTransform></g></svg> -->
<?xml version="1.0" encoding="UTF-8" standalone="no"?><svg xmlns:svg="http://www.w3.org/2000/svg" xmlns="http://www.w3.org/2000/svg" xmlns:xlink="http://www.w3.org/1999/xlink" version="1.0" width="64px" height="64px" viewBox="0 0 128 128" xml:space="preserve"><g><path fill="#000000" d="M109.25 55.5h-36l12-12a29.54 29.54 0 0 0-49.53 12H18.75A46.04 46.04 0 0 1 96.9 31.84l12.35-12.34v36zm-90.5 17h36l-12 12a29.54 29.54 0 0 0 49.53-12h16.97A46.04 46.04 0 0 1 31.1 96.16L18.74 108.5v-36z"/><animateTransform attributeName="transform" type="rotate" from="0 64 64" to="360 64 64" dur="720ms" repeatCount="indefinite"></animateTransform></g></svg>